<?xml version="1.0" encoding="utf-8"?>
<!-- Generator: Adobe Illustrator 19.0.0, SVG Export Plug-In . SVG Version: 6.00 Build 0)  -->
<svg version="1.1" id="cbdaacec" xmlns="http://www.w3.org/2000/svg" xmlns:xlink="http://www.w3.org/1999/xlink" x="0px" y="0px"
	 viewBox="-155 352 300 89" style="enable-background:new -155 352 300 89;" xml:space="preserve">
<style type="text/css">
	.st0{fill:#BCBCBC;}
</style>
<g id="SvgjsG1084">
</g>
<g id="SvgjsG1085" transform="matrix(20.886612934618928,0,0,20.886612934618928,-7.209070171315009,-7.531671251836819)">
	<g>
		<path class="st0" d="M-3.6,19.1c-0.1,0-0.2,0.1-0.3,0.1c-0.1,0-0.2,0.1-0.3,0.1c-0.1,0-0.2,0-0.4,0.1c-0.1,0-0.1,0-0.2,0
			c0,0-0.1,0-0.1,0h-0.1c-0.1,0-0.2,0-0.4,0c-0.1,0-0.2,0-0.3-0.1c-0.1,0-0.2-0.1-0.3-0.1c-0.1,0-0.2-0.1-0.2-0.1
			c-0.1-0.1-0.1-0.1-0.2-0.2c0-0.1-0.1-0.1-0.1-0.1c0,0,0,0,0,0c0,0,0,0,0,0c0.1-0.1,0.1-0.3,0.2-0.4l0,0c0,0.1,0,0.1,0.1,0.2
			c0.1,0.1,0.2,0.1,0.3,0.2c0.1,0.1,0.2,0.1,0.4,0.1c0.1,0,0.1,0,0.2,0c0.1,0,0.2,0,0.2,0c0,0,0.1,0,0.1,0c0,0,0,0,0.1,0
			c0,0,0,0,0.1,0c0.1,0,0.2,0,0.3,0c0.1,0,0.2,0,0.3-0.1c0,0,0.1,0,0.1,0c0,0,0.1,0,0.1-0.1c0.1,0,0.2-0.1,0.2-0.2
			c0,0,0.1-0.1,0.1-0.1s0-0.1,0-0.1c0,0,0,0,0,0c0.2,0.2,0.3,0.4,0.4,0.6c0,0,0,0.1-0.1,0.1C-3.5,19-3.5,19-3.6,19.1z"/>
		<path class="st0" d="M-3.5,19.8c-0.1,0-0.2,0.1-0.3,0.1C-3.9,20-4,20-4.1,20c-0.1,0-0.3,0-0.4,0.1c-0.1,0-0.1,0-0.2,0
			c0,0-0.1,0-0.1,0l-0.1,0c-0.1,0-0.3,0-0.4,0s-0.3,0-0.4-0.1c-0.1,0-0.2-0.1-0.3-0.1c-0.1,0-0.2-0.1-0.3-0.1c0,0-0.1-0.1-0.1-0.1
			c0,0-0.1-0.1-0.1-0.1c0,0-0.1-0.1-0.1-0.1c0-0.2,0-0.3,0-0.5c0,0,0,0,0,0c0.1,0.1,0.1,0.1,0.2,0.2c0.1,0.1,0.2,0.1,0.3,0.2
			c0.1,0,0.2,0.1,0.3,0.1c0.1,0,0.2,0,0.4,0.1c0.1,0,0.3,0,0.4,0l0.1,0c0,0,0.1,0,0.1,0c0.1,0,0.1,0,0.2,0c0.1,0,0.3,0,0.4-0.1
			c0.1,0,0.2-0.1,0.3-0.1c0.1,0,0.2-0.1,0.3-0.2c0.1-0.1,0.1-0.1,0.2-0.2c0,0,0,0,0-0.1c0.1,0.3,0.1,0.5,0,0.8c0,0-0.1,0-0.1,0.1
			C-3.4,19.8-3.4,19.8-3.5,19.8z"/>
		<path class="st0" d="M-3.8,18.2c0,0.1,0,0.2-0.1,0.2c0,0-0.1,0.1-0.1,0.1c0,0-0.1,0-0.1,0.1c-0.2,0.1-0.3,0.1-0.5,0.1
			c-0.1,0-0.2,0-0.2,0c0,0,0,0-0.1,0c0,0,0,0-0.1,0c0,0-0.1,0-0.1,0c-0.1,0-0.1,0-0.2,0c-0.1,0-0.1,0-0.2,0c-0.1,0-0.2-0.1-0.3-0.1
			c-0.1,0-0.1-0.1-0.2-0.1c0,0,0-0.1-0.1-0.1c0,0,0,0,0,0l0,0c0,0,0,0,0,0c0,0,0,0,0,0c0,0,0,0,0,0c0,0,0,0,0,0c0,0,0,0,0,0
			c0,0,0-0.1,0.1-0.1c0,0,0.1-0.1,0.2-0.1c0,0,0.1-0.1,0.2-0.1c0,0,0,0,0,0c0,0,0,0.1,0,0.1v0c0,0,0,0,0,0c0,0,0,0,0,0.1
			c0,0,0,0,0,0.1c0,0,0.1,0.1,0.1,0.1c0.1,0,0.1,0.1,0.2,0.1s0.2,0,0.2,0c0,0,0,0,0,0l0,0h0c0,0,0,0,0,0h0l0,0h0c0,0,0,0,0.1,0
			c0,0,0.1,0,0.1,0c0.1,0,0.2-0.1,0.2-0.1c0,0,0,0,0,0l0,0l0,0c0,0,0,0,0-0.1c0,0,0-0.1,0-0.1l0,0c0,0,0,0,0,0c0,0,0,0,0,0
			c0,0,0,0,0,0c0,0,0,0,0-0.1l0,0C-4.2,17.8-4,17.9-3.8,18.2C-3.8,18.1-3.8,18.2-3.8,18.2z"/>
		<path class="st0" d="M-5.3,20.8c0.1,0,0.2,0,0.4,0l0.1,0c0,0,0.1,0,0.1,0c0.1,0,0.1,0,0.2,0c0.1,0,0.2,0,0.3-0.1
			c0.1,0,0.2-0.1,0.3-0.1c0,0,0,0,0,0c-0.6,0.5-1.4,0.5-2,0.1c0.1,0,0.1,0,0.2,0C-5.5,20.8-5.4,20.8-5.3,20.8z"/>
		<path class="st0" d="M-5.3,17.9C-5.3,17.9-5.3,17.9-5.3,17.9L-5.3,17.9C-5.3,17.9-5.3,17.9-5.3,17.9C-5.3,17.9-5.3,17.9-5.3,17.9
			C-5.3,17.9-5.3,17.9-5.3,17.9C-5.3,17.9-5.3,17.9-5.3,17.9c0-0.1,0-0.1,0.1-0.1c0,0,0.1,0,0.1-0.1c0,0,0,0,0,0c0,0,0,0,0,0
			c0,0,0,0,0,0c0,0,0,0,0,0c0,0,0,0,0,0c0.1,0,0.2,0,0.2,0c0,0,0.1,0,0.1,0c0,0,0,0,0,0c0,0,0,0,0,0l0,0l0,0c0.1,0,0.1,0.1,0.1,0.2
			c0,0,0,0.1,0,0.1c0,0-0.1,0.1-0.1,0.1l0,0l0,0c0,0,0,0,0,0c0,0,0,0,0,0c0,0-0.1,0-0.1,0c0,0-0.1,0-0.1,0c0,0,0,0-0.1,0
			c0,0,0,0,0,0c-0.1,0-0.1,0-0.2-0.1C-5.2,18.1-5.2,18.1-5.3,17.9C-5.3,18-5.3,18-5.3,17.9C-5.3,18-5.3,18-5.3,17.9L-5.3,17.9
			L-5.3,17.9C-5.3,17.9-5.3,17.9-5.3,17.9L-5.3,17.9L-5.3,17.9z"/>
		<path class="st0" d="M-3.9,20.6c-0.1,0-0.2,0.1-0.3,0.1c-0.1,0-0.2,0-0.3,0c-0.1,0-0.1,0-0.2,0c0,0-0.1,0-0.1,0l-0.1,0
			c-0.1,0-0.2,0-0.3,0c-0.1,0-0.2,0-0.3-0.1c-0.1,0-0.2-0.1-0.3-0.1c-0.1,0-0.2-0.1-0.2-0.1c-0.1,0-0.1-0.1-0.2-0.1
			c0,0-0.1-0.1-0.1-0.1c0,0,0-0.1,0-0.1c0,0,0,0,0,0c0,0,0,0,0,0c0,0,0,0,0,0c0,0,0,0,0-0.1c0.1,0,0.2,0.1,0.3,0.1
			c0.1,0,0.2,0.1,0.4,0.1s0.3,0,0.4,0.1c0.1,0,0.3,0,0.4,0l0.1,0c0,0,0.1,0,0.1,0c0.1,0,0.1,0,0.2,0c0.1,0,0.3,0,0.4-0.1
			c0.1,0,0.2-0.1,0.4-0.1c0.1,0,0.2-0.1,0.3-0.2c0,0,0.1-0.1,0.1-0.1c-0.1,0.2-0.2,0.4-0.3,0.6c0,0,0,0,0,0
			C-3.8,20.5-3.9,20.5-3.9,20.6z"/>
	</g>
</g>
<g id="SvgjsG1086" transform="matrix(1.902132504365439,0,0,1.902132504365439,96.84246124000322,9.91885098152552)">
	<path class="st0" d="M-75.9,195.1c2,0,3.6,0.4,4.6,1.1c1.1,0.7,1.6,1.9,1.6,3.4c0,0.8-0.1,1.5-0.4,2.1s-0.7,1.1-1.3,1.4
		c-0.5,0.4-1.2,0.6-2,0.8c-0.8,0.2-1.7,0.3-2.7,0.3h-1.3v4.9h-2.5v-13.7c0.6-0.1,1.2-0.2,1.9-0.3C-77.2,195.1-76.5,195.1-75.9,195.1
		z M-75.7,197.2c-0.6,0-1.2,0-1.6,0.1v4.7h1.2c1.2,0,2.1-0.2,2.8-0.5s1-1,1-1.9c0-0.5-0.1-0.8-0.3-1.1c-0.2-0.3-0.4-0.5-0.7-0.7
		c-0.3-0.2-0.7-0.3-1.1-0.4C-74.8,197.3-75.2,197.2-75.7,197.2z M-67.4,209.1v-13.9h8.9v2.1h-6.4v3.4h5.7v2.1h-5.7v4.1h6.9v2.1
		H-67.4z M-46,195.2v2.2h-4.3v11.7h-2.5v-11.7H-57v-2.2C-57,195.2-46,195.2-46,195.2z M-32.6,203.9c0-1.1-0.2-1.9-0.7-2.5
		c-0.5-0.6-1.3-0.9-2.3-0.9c-0.2,0-0.5,0-0.7,0c-0.2,0-0.5,0.1-0.7,0.1v6c0.2,0.1,0.5,0.3,0.8,0.4c0.4,0.1,0.7,0.2,1.1,0.2
		c0.9,0,1.5-0.3,1.9-0.9C-32.8,205.7-32.6,204.9-32.6,203.9z M-30.1,203.8c0,0.8-0.1,1.5-0.3,2.2c-0.2,0.7-0.5,1.2-0.9,1.7
		s-0.9,0.9-1.5,1.1c-0.6,0.3-1.2,0.4-2,0.4c-0.5,0-0.9-0.1-1.4-0.2c-0.4-0.1-0.8-0.3-1-0.4v4.1h-2.4v-13.8c0.5-0.1,1.1-0.3,1.8-0.4
		c0.7-0.1,1.5-0.2,2.3-0.2c0.8,0,1.6,0.1,2.2,0.4c0.7,0.3,1.2,0.6,1.7,1.1c0.5,0.5,0.8,1,1.1,1.7C-30.2,202.2-30.1,203-30.1,203.8z
		 M-21.6,200.8c-0.2-0.1-0.5-0.1-0.8-0.2c-0.4-0.1-0.8-0.1-1.2-0.1c-0.3,0-0.5,0-0.8,0.1c-0.3,0.1-0.5,0.1-0.6,0.1v8.4h-2.4v-10
		c0.5-0.2,1-0.3,1.7-0.5s1.5-0.2,2.3-0.2c0.2,0,0.3,0,0.6,0c0.2,0,0.4,0,0.6,0.1c0.2,0,0.4,0.1,0.6,0.1s0.4,0.1,0.5,0.1L-21.6,200.8
		z M-10.1,203.8c0,0.8-0.1,1.6-0.4,2.3c-0.2,0.7-0.6,1.3-1,1.7c-0.4,0.5-1,0.9-1.6,1.1c-0.6,0.3-1.3,0.4-2.1,0.4s-1.4-0.1-2-0.4
		c-0.6-0.3-1.1-0.6-1.6-1.1c-0.4-0.5-0.8-1.1-1-1.7c-0.2-0.7-0.4-1.4-0.4-2.3c0-0.8,0.1-1.6,0.4-2.3c0.2-0.7,0.6-1.2,1-1.7
		c0.4-0.5,1-0.9,1.6-1.1c0.6-0.3,1.3-0.4,2-0.4c0.7,0,1.4,0.1,2,0.4c0.6,0.3,1.2,0.6,1.6,1.1c0.4,0.5,0.8,1.1,1,1.7
		C-10.2,202.2-10.1,203-10.1,203.8L-10.1,203.8z M-12.6,203.8c0-1-0.2-1.9-0.7-2.5c-0.4-0.6-1.1-0.9-1.9-0.9s-1.4,0.3-1.9,0.9
		c-0.4,0.6-0.7,1.4-0.7,2.5c0,1.1,0.2,1.9,0.7,2.5c0.4,0.6,1.1,0.9,1.9,0.9s1.4-0.3,1.9-0.9C-12.8,205.7-12.6,204.9-12.6,203.8z
		 M-8.9,212.8c-0.2,0-0.4,0-0.7-0.1c-0.3,0-0.6-0.1-0.8-0.2l0.3-2c0.3,0.1,0.6,0.1,1.1,0.1c0.6,0,1-0.2,1.2-0.5
		c0.2-0.3,0.3-0.8,0.3-1.5v-10.1h2.4v10.2c0,1.4-0.3,2.4-1,3C-6.8,212.4-7.7,212.8-8.9,212.8L-8.9,212.8z M-4.9,195.5
		c0,0.5-0.1,0.8-0.4,1.1s-0.6,0.4-1,0.4c-0.4,0-0.8-0.1-1.1-0.4c-0.3-0.3-0.4-0.6-0.4-1.1c0-0.5,0.1-0.8,0.4-1.1
		c0.3-0.3,0.6-0.4,1.1-0.4c0.4,0,0.7,0.1,1,0.4C-5.1,194.7-4.9,195.1-4.9,195.5z M-2.7,203.9c0-0.9,0.1-1.7,0.4-2.4
		c0.3-0.7,0.6-1.3,1.1-1.7c0.5-0.5,1-0.8,1.6-1s1.2-0.4,1.8-0.4c1.4,0,2.6,0.4,3.4,1.3c0.8,0.9,1.2,2.2,1.2,4c0,0.1,0,0.3,0,0.4
		c0,0.2,0,0.3,0,0.5h-6.9c0.1,0.8,0.4,1.5,0.9,1.9c0.5,0.5,1.3,0.7,2.3,0.7c0.6,0,1.1-0.1,1.6-0.2c0.5-0.1,0.9-0.2,1.2-0.3l0.3,2
		c-0.1,0.1-0.3,0.1-0.6,0.2S5,209,4.7,209.1c-0.3,0.1-0.6,0.1-1,0.1s-0.7,0.1-1.1,0.1c-0.9,0-1.7-0.1-2.4-0.4
		c-0.7-0.3-1.2-0.7-1.7-1.1c-0.4-0.5-0.8-1.1-1-1.7C-2.6,205.4-2.7,204.7-2.7,203.9L-2.7,203.9z M4.4,202.8c0-0.3,0-0.7-0.1-1
		c-0.1-0.3-0.2-0.6-0.4-0.8c-0.2-0.2-0.4-0.4-0.7-0.5c-0.3-0.1-0.6-0.2-0.9-0.2c-0.4,0-0.7,0.1-1,0.2s-0.5,0.3-0.7,0.6
		s-0.3,0.5-0.4,0.8c-0.1,0.3-0.2,0.6-0.2,0.9L4.4,202.8L4.4,202.8z M8.8,203.8c0-0.8,0.1-1.5,0.4-2.2c0.2-0.7,0.6-1.3,1-1.8
		c0.4-0.5,1-0.9,1.6-1.2c0.6-0.3,1.4-0.4,2.2-0.4c1,0,1.9,0.2,2.8,0.5l-0.5,2c-0.3-0.1-0.6-0.2-0.9-0.3c-0.4-0.1-0.7-0.1-1.1-0.1
		c-0.9,0-1.7,0.3-2.2,0.9c-0.5,0.6-0.7,1.4-0.7,2.5c0,1,0.2,1.9,0.7,2.5c0.5,0.6,1.3,0.9,2.4,0.9c0.4,0,0.8,0,1.2-0.1
		c0.4-0.1,0.7-0.2,1-0.3l0.3,2c-0.3,0.1-0.7,0.3-1.2,0.4c-0.5,0.1-1.1,0.2-1.7,0.2c-0.9,0-1.7-0.1-2.3-0.4c-0.7-0.3-1.2-0.7-1.6-1.1
		c-0.4-0.5-0.8-1.1-1-1.7C8.9,205.4,8.8,204.6,8.8,203.8L8.8,203.8z M18.7,195.8l2.4-0.4v3.2h3.7v2h-3.7v4.3c0,0.8,0.1,1.4,0.4,1.8
		c0.3,0.4,0.7,0.5,1.4,0.5c0.4,0,0.8,0,1.2-0.1c0.3-0.1,0.6-0.2,0.8-0.3l0.4,1.9c-0.3,0.1-0.6,0.2-1.1,0.4c-0.5,0.1-1,0.2-1.6,0.2
		c-0.7,0-1.4-0.1-1.9-0.3s-0.9-0.5-1.2-0.9c-0.3-0.4-0.5-0.8-0.6-1.4s-0.2-1.2-0.2-1.9L18.7,195.8L18.7,195.8z"/>
</g>
</svg>
